<?xml version="1.0" encoding="utf-8"?>
<!-- Generator: Adobe Illustrator 18.0.0, SVG Export Plug-In . SVG Version: 6.00 Build 0)  -->
<!DOCTYPE svg PUBLIC "-//W3C//DTD SVG 1.1//EN" "http://www.w3.org/Graphics/SVG/1.1/DTD/svg11.dtd">
<svg version="1.1" id="icons" xmlns="http://www.w3.org/2000/svg" xmlns:xlink="http://www.w3.org/1999/xlink" x="0px" y="0px"
	 viewBox="0 0 258.7 134.6" enable-background="new 0 0 258.7 134.6" xml:space="preserve">
<line fill="none" stroke="#E0E0E0" stroke-width="2" stroke-miterlimit="10" x1="95.2" y1="57.5" x2="105.5" y2="65.9"/>
<line fill="none" stroke="#E0E0E0" stroke-width="2" stroke-miterlimit="10" x1="180.5" y1="91.8" x2="199.2" y2="96.6"/>
<line fill="none" stroke="#E0E0E0" stroke-width="2" stroke-miterlimit="10" x1="87.9" y1="103.4" x2="102.9" y2="98.2"/>
<line fill="none" stroke="#E0E0E0" stroke-width="2" stroke-miterlimit="10" x1="28.8" y1="83.8" x2="38.8" y2="91.8"/>
<line fill="none" stroke="#E0E0E0" stroke-width="2" stroke-miterlimit="10" x1="173.2" y1="61.2" x2="210.3" y2="36.1"/>
<line fill="none" stroke="#E0E0E0" stroke-width="2" stroke-miterlimit="10" x1="135.9" y1="30.5" x2="136.8" y2="45.1"/>
<g>
	<path fill="none" stroke="#F06B4E" stroke-width="2" stroke-miterlimit="10" d="M163.5,96.1h-18.7v1.6H137v-1.6h-18.7v3.1
		c0,1.7,1.4,3.1,3.1,3.1h39c1.7,0,3.1-1.4,3.1-3.1V96.1z"/>
	<path fill="none" stroke="#F06B4E" stroke-width="2" stroke-miterlimit="10" d="M162,96.1V72.7c0-1.7-1.4-3.1-3.1-3.1H123
		c-1.7,0-3.1,1.4-3.1,3.1v23.4"/>
	<rect x="123" y="72.7" fill="none" stroke="#F06B4E" stroke-width="2" stroke-miterlimit="10" width="35.9" height="20.3"/>
</g>
<g>
	
		<circle fill="none" stroke="#96CA5F" stroke-width="2" stroke-linecap="round" stroke-linejoin="round" stroke-miterlimit="10" cx="228.1" cy="27.1" r="11.8"/>
	<path fill="none" stroke="#96CA5F" stroke-width="2" stroke-linecap="round" stroke-linejoin="round" stroke-miterlimit="10" d="
		M236.9,19.1c0,0-0.5,2.8-2.6,3.9c-2.1-0.5-4.1,1-3.6,1s1,2.1,1,2.1c0.5,0.5,1.5,0,1.5,0c1.3,1.3-2.1,3.6-2.1,4.1
		c0,0.5,1.3,0.8,0.5,1.5c-0.8,0.8-1.5,1-1.5,1c0,2.6-2.6,2.6-3.1,2.6c-0.5,0-1.5-2.1-1.5-2.6c0-0.5,0.5-1,0.5-1.5c0-0.5-1-1.5-1-1.5
		c0-2.1-1.5-1.5-3.1-1.5c-1.5,0-1.5-2.1-1.5-2.1s0-3.6,2.6-4.1c2.6-0.5,2.6,0.5,2.6,0.5c1,1,3.1,0,4.1,0c0,0,0.5-3.6-0.5-3.1
		c-1,0.5-2,0.1-2.1-1c-0.2-1.6,4.5-2.6,4.5-2.6"/>
</g>
<g>
	
		<circle fill="none" stroke="#96CA5F" stroke-width="2" stroke-linecap="round" stroke-linejoin="round" stroke-miterlimit="10" cx="16.8" cy="75.4" r="7.8"/>
	
		<line fill="none" stroke="#96CA5F" stroke-width="2" stroke-linecap="round" stroke-linejoin="round" stroke-miterlimit="10" x1="9.9" y1="71.7" x2="23.6" y2="71.7"/>
	
		<line fill="none" stroke="#96CA5F" stroke-width="2" stroke-linecap="round" stroke-linejoin="round" stroke-miterlimit="10" x1="16.8" y1="71.7" x2="16.8" y2="83.2"/>
	
		<circle fill="none" stroke="#96CA5F" stroke-width="2" stroke-linecap="round" stroke-linejoin="round" stroke-miterlimit="10" cx="12" cy="65" r="1.3"/>
	<path fill="none" stroke="#96CA5F" stroke-width="2" stroke-linecap="round" stroke-linejoin="round" stroke-miterlimit="10" d="
		M12,66.3c0,0.7,0.9,2,1.6,2"/>
	
		<circle fill="none" stroke="#96CA5F" stroke-width="2" stroke-linecap="round" stroke-linejoin="round" stroke-miterlimit="10" cx="21.5" cy="65" r="1.3"/>
	<path fill="none" stroke="#96CA5F" stroke-width="2" stroke-linecap="round" stroke-linejoin="round" stroke-miterlimit="10" d="
		M21.5,66.3c0,0.7-0.9,2-1.6,2"/>
	
		<line fill="none" stroke="#96CA5F" stroke-width="2" stroke-linecap="round" stroke-linejoin="round" stroke-miterlimit="10" x1="7" y1="75.8" x2="9" y2="75.8"/>
	
		<line fill="none" stroke="#96CA5F" stroke-width="2" stroke-linecap="round" stroke-linejoin="round" stroke-miterlimit="10" x1="7.6" y1="72" x2="9.5" y2="72.7"/>
	
		<line fill="none" stroke="#96CA5F" stroke-width="2" stroke-linecap="round" stroke-linejoin="round" stroke-miterlimit="10" x1="7.6" y1="79.5" x2="9.7" y2="78.7"/>
	
		<line fill="none" stroke="#96CA5F" stroke-width="2" stroke-linecap="round" stroke-linejoin="round" stroke-miterlimit="10" x1="26.5" y1="75.8" x2="24.5" y2="75.8"/>
	
		<line fill="none" stroke="#96CA5F" stroke-width="2" stroke-linecap="round" stroke-linejoin="round" stroke-miterlimit="10" x1="25.9" y1="72" x2="24" y2="72.7"/>
	
		<line fill="none" stroke="#96CA5F" stroke-width="2" stroke-linecap="round" stroke-linejoin="round" stroke-miterlimit="10" x1="25.9" y1="79.5" x2="23.8" y2="78.7"/>
</g>
<line fill="none" stroke="#F1CB3E" stroke-width="2" stroke-linecap="round" stroke-linejoin="round" stroke-miterlimit="10" x1="68.8" y1="105.1" x2="57.6" y2="105.1"/>
<line fill="none" stroke="#F1CB3E" stroke-width="2" stroke-linecap="round" stroke-linejoin="round" stroke-miterlimit="10" x1="52.4" y1="105.1" x2="54.2" y2="105.1"/>
<line fill="none" stroke="#F1CB3E" stroke-width="2" stroke-linecap="round" stroke-linejoin="round" stroke-miterlimit="10" x1="68.8" y1="108.5" x2="57.6" y2="108.5"/>
<line fill="none" stroke="#F1CB3E" stroke-width="2" stroke-linecap="round" stroke-linejoin="round" stroke-miterlimit="10" x1="52.4" y1="108.5" x2="54.2" y2="108.5"/>
<line fill="none" stroke="#F1CB3E" stroke-width="2" stroke-linecap="round" stroke-linejoin="round" stroke-miterlimit="10" x1="68.8" y1="111.9" x2="57.6" y2="111.9"/>
<line fill="none" stroke="#F1CB3E" stroke-width="2" stroke-linecap="round" stroke-linejoin="round" stroke-miterlimit="10" x1="52.4" y1="111.9" x2="54.2" y2="111.9"/>
<path fill="none" stroke="#F1CB3E" stroke-width="2" stroke-linecap="round" stroke-linejoin="round" stroke-miterlimit="10" d="
	M73.5,114.1c0,1.2-1,2.2-2.2,2.2H50.7c-1.2,0-2.2-1-2.2-2.2V99.5c0-1.2,1-2.2,2.2-2.2h20.7c1.2,0,2.2,1,2.2,2.2V114.1z"/>
<line fill="none" stroke="#F1CB3E" stroke-width="2" stroke-linecap="round" stroke-linejoin="round" stroke-miterlimit="10" x1="48.6" y1="101.6" x2="73.5" y2="101.6"/>
<circle fill="#F1CB3E" cx="51.9" cy="99.5" r="0.6"/>
<circle fill="#F1CB3E" cx="54.2" cy="99.5" r="0.6"/>
<circle fill="#F1CB3E" cx="56.4" cy="99.5" r="0.6"/>
<g>
	
		<ellipse fill="none" stroke="#00B7DA" stroke-width="2" stroke-linecap="round" stroke-linejoin="round" stroke-miterlimit="10" cx="76.1" cy="34.3" rx="11.5" ry="4.8"/>
	<path fill="none" stroke="#00B7DA" stroke-width="2" stroke-linecap="round" stroke-linejoin="round" stroke-miterlimit="10" d="
		M87.6,39.1c0,2.7-5.2,4.8-11.5,4.8s-11.5-2.1-11.5-4.8"/>
	<path fill="none" stroke="#00B7DA" stroke-width="2" stroke-linecap="round" stroke-linejoin="round" stroke-miterlimit="10" d="
		M87.6,43.9c0,2.7-5.2,4.8-11.5,4.8s-11.5-2.1-11.5-4.8"/>
	<path fill="none" stroke="#00B7DA" stroke-width="2" stroke-linecap="round" stroke-linejoin="round" stroke-miterlimit="10" d="
		M64.6,34.3v14.4c0,2.7,5.2,4.8,11.5,4.8s11.5-2.1,11.5-4.8V34.3"/>
</g>
<rect x="214.1" y="94.7" fill="none" stroke="#00B7DA" stroke-width="2" stroke-linecap="round" stroke-linejoin="round" stroke-miterlimit="10" width="27.9" height="7.7"/>
<polyline fill="none" stroke="#00B7DA" stroke-width="2" stroke-linecap="round" stroke-linejoin="round" stroke-miterlimit="10" points="
	214.1,94.7 218.9,89.9 237.1,89.9 241.9,94.7 "/>
<path fill="none" stroke="#00B7DA" stroke-width="2" stroke-linecap="round" stroke-linejoin="round" stroke-miterlimit="10" d="
	M214.1,110.1v5.3c0,1.3,1.1,2.4,2.4,2.4h23.1c1.3,0,2.4-1.1,2.4-2.4v-5.3"/>
<circle fill="none" stroke="#00B7DA" stroke-width="2" stroke-linecap="round" stroke-linejoin="round" stroke-miterlimit="10" cx="217.9" cy="98.6" r="1.3"/>
<circle fill="none" stroke="#00B7DA" stroke-width="2" stroke-linecap="round" stroke-linejoin="round" stroke-miterlimit="10" cx="217.9" cy="106.3" r="1.3"/>
<circle fill="none" stroke="#00B7DA" stroke-width="2" stroke-linecap="round" stroke-linejoin="round" stroke-miterlimit="10" cx="217.9" cy="113.9" r="1.3"/>
<polyline fill="none" stroke="#00B7DA" stroke-width="2" stroke-linecap="round" stroke-linejoin="round" stroke-miterlimit="10" points="
	241.9,102.4 241.9,110.1 214.1,110.1 214.1,102.4 "/>
<circle fill="#00B7DA" cx="229.8" cy="113.9" r="1.2"/>
<circle fill="#00B7DA" cx="233.8" cy="113.9" r="1.2"/>
<circle fill="#00B7DA" cx="237.9" cy="113.9" r="1.2"/>
<circle fill="#00B7DA" cx="229.8" cy="106.3" r="1.2"/>
<circle fill="#00B7DA" cx="233.8" cy="106.3" r="1.2"/>
<circle fill="#00B7DA" cx="237.9" cy="106.3" r="1.2"/>
<circle fill="#00B7DA" cx="229.8" cy="98.6" r="1.2"/>
<circle fill="#00B7DA" cx="233.8" cy="98.6" r="1.2"/>
<circle fill="#00B7DA" cx="237.9" cy="98.6" r="1.2"/>
<g>
	<g>
		<path fill="#9B5FA6" d="M135.3,7.3c1.3,0,2.7,0.5,2.9,1.4c0.3,1.1-0.5,2.2-0.5,2.4c0.9,0,0.6,1.9,0,1.9c0,2.1-0.9,2.4-0.9,2.4v1.9
			c2.4,1,5.4,2.6,5.4,3.1c0,1.4,0,2.3,0,2.3h-7.4h-7.2c0,0,0-1.3,0-2.3c0-0.5,2.9-2.1,5.4-3.1v-1.9c0,0-1-0.3-1-2.4
			c-0.7,0-1-1.9,0-1.9c0-0.3-1.3-2.5,0.1-2.5c0.1,0,0.2,0,0.4,0C132.7,7.8,134,7.3,135.3,7.3 M135.3,5.3c-1.7,0-3.2,0.6-4,1.5
			c-0.6,0.2-1.1,0.5-1.5,1c-0.6,0.9-0.5,2-0.2,2.8c-0.2,0.4-0.3,0.9-0.3,1.3c0,0.8,0.3,1.6,0.7,2.1c0.1,0.8,0.4,1.5,0.7,2
			c-2.6,1.1-5.1,2.6-5.1,4.3v2.3c0,1.1,0.9,2,2,2h7.2h7.4c1.1,0,2-0.9,2-2v-2.3c0-0.6,0-2-5.2-4.3c0.3-0.5,0.6-1.1,0.7-2
			c0.4-0.6,0.7-1.3,0.7-2.1c0-0.5-0.1-0.9-0.3-1.3c0.2-0.6,0.3-1.5,0.1-2.4C139.7,6.5,137.8,5.3,135.3,5.3L135.3,5.3z"/>
	</g>
</g>
<circle fill="none" stroke="#E0E0E0" stroke-width="2" stroke-miterlimit="10" cx="134.6" cy="15.7" r="14.7"/>
<circle fill="none" stroke="#E0E0E0" stroke-width="2" stroke-miterlimit="10" cx="16.8" cy="73.4" r="15.8"/>
<circle fill="none" stroke="#E0E0E0" stroke-width="2" stroke-miterlimit="10" cx="61.1" cy="106.8" r="26.8"/>
<circle fill="none" stroke="#E0E0E0" stroke-width="2" stroke-miterlimit="10" cx="140.9" cy="85.1" r="40.2"/>
<circle fill="none" stroke="#E0E0E0" stroke-width="2" stroke-miterlimit="10" cx="76.6" cy="41.5" r="24.3"/>
<circle fill="none" stroke="#E0E0E0" stroke-width="2" stroke-miterlimit="10" cx="228" cy="103.9" r="29.7"/>
<circle fill="none" stroke="#E0E0E0" stroke-width="2" stroke-miterlimit="10" cx="228.1" cy="27.1" r="19.9"/>
</svg>
