<?xml version="1.0" encoding="utf-8"?>
<!-- Generator: Adobe Illustrator 18.0.0, SVG Export Plug-In . SVG Version: 6.00 Build 0)  -->
<!DOCTYPE svg PUBLIC "-//W3C//DTD SVG 1.1//EN" "http://www.w3.org/Graphics/SVG/1.1/DTD/svg11.dtd">
<svg version="1.1" id="icons" xmlns="http://www.w3.org/2000/svg" xmlns:xlink="http://www.w3.org/1999/xlink" x="0px" y="0px"
	 viewBox="0 0 188.3 137" enable-background="new 0 0 188.3 137" xml:space="preserve">
<g>
	<polygon fill="none" stroke="#E0E0E0" stroke-width="2" stroke-miterlimit="10" points="13,130.9 13,117.3 26.6,124.1 	"/>
	<path fill="none" stroke="#E0E0E0" stroke-width="2" stroke-miterlimit="10" d="M35.6,130.6c0,2.6-2.1,4.8-4.8,5.4H5.8
		c-2.6-0.6-4.8-2.7-4.8-5.4v-13c0-2.6,2.1-4.8,4.8-5.5h25.1c2.6,0.7,4.8,2.8,4.8,5.5V130.6z"/>
</g>
<circle fill="none" stroke="#96CA5F" stroke-width="2" stroke-linecap="round" stroke-linejoin="round" stroke-miterlimit="10" cx="131.1" cy="3.2" r="2.2"/>
<circle fill="none" stroke="#96CA5F" stroke-width="2" stroke-linecap="round" stroke-linejoin="round" stroke-miterlimit="10" cx="158.1" cy="3.2" r="2.2"/>
<circle fill="none" stroke="#96CA5F" stroke-width="2" stroke-linecap="round" stroke-linejoin="round" stroke-miterlimit="10" cx="104.1" cy="16.6" r="2.2"/>
<circle fill="none" stroke="#96CA5F" stroke-width="2" stroke-linecap="round" stroke-linejoin="round" stroke-miterlimit="10" cx="77.1" cy="12.2" r="2.2"/>
<circle fill="none" stroke="#96CA5F" stroke-width="2" stroke-linecap="round" stroke-linejoin="round" stroke-miterlimit="10" cx="50.1" cy="21.8" r="2.2"/>
<line fill="none" stroke="#96CA5F" stroke-width="2" stroke-linecap="round" stroke-linejoin="round" stroke-miterlimit="10" x1="52.4" y1="20.9" x2="74.9" y2="13.2"/>
<line fill="none" stroke="#96CA5F" stroke-width="2" stroke-linecap="round" stroke-linejoin="round" stroke-miterlimit="10" x1="79.3" y1="12.2" x2="101.9" y2="16.6"/>
<line fill="none" stroke="#96CA5F" stroke-width="2" stroke-linecap="round" stroke-linejoin="round" stroke-miterlimit="10" x1="106.1" y1="15.6" x2="128.8" y2="4.5"/>
<line fill="none" stroke="#96CA5F" stroke-width="2" stroke-linecap="round" stroke-linejoin="round" stroke-miterlimit="10" x1="133.3" y1="3.2" x2="155.8" y2="3.2"/>
<circle fill="none" stroke="#00B7DA" stroke-width="2" stroke-linecap="round" stroke-linejoin="round" stroke-miterlimit="10" cx="131.1" cy="66.2" r="2.2"/>
<circle fill="none" stroke="#00B7DA" stroke-width="2" stroke-linecap="round" stroke-linejoin="round" stroke-miterlimit="10" cx="158.1" cy="61.7" r="2.2"/>
<circle fill="none" stroke="#00B7DA" stroke-width="2" stroke-linecap="round" stroke-linejoin="round" stroke-miterlimit="10" cx="104.1" cy="49.5" r="2.2"/>
<circle fill="none" stroke="#00B7DA" stroke-width="2" stroke-linecap="round" stroke-linejoin="round" stroke-miterlimit="10" cx="77.1" cy="69.1" r="2.2"/>
<circle fill="none" stroke="#00B7DA" stroke-width="2" stroke-linecap="round" stroke-linejoin="round" stroke-miterlimit="10" cx="50.1" cy="72.5" r="2.2"/>
<line fill="none" stroke="#00B7DA" stroke-width="2" stroke-linecap="round" stroke-linejoin="round" stroke-miterlimit="10" x1="52.4" y1="71.6" x2="74.9" y2="69.4"/>
<line fill="none" stroke="#00B7DA" stroke-width="2" stroke-linecap="round" stroke-linejoin="round" stroke-miterlimit="10" x1="79.3" y1="68.4" x2="102.2" y2="50.7"/>
<line fill="none" stroke="#00B7DA" stroke-width="2" stroke-linecap="round" stroke-linejoin="round" stroke-miterlimit="10" x1="106.7" y1="50.7" x2="128.5" y2="64.9"/>
<line fill="none" stroke="#00B7DA" stroke-width="2" stroke-linecap="round" stroke-linejoin="round" stroke-miterlimit="10" x1="133.3" y1="66.2" x2="155.9" y2="62.2"/>
<circle fill="none" stroke="#F1CB3E" stroke-width="2" stroke-linecap="round" stroke-linejoin="round" stroke-miterlimit="10" cx="131.1" cy="108" r="2.2"/>
<circle fill="none" stroke="#F1CB3E" stroke-width="2" stroke-linecap="round" stroke-linejoin="round" stroke-miterlimit="10" cx="158.1" cy="98.5" r="2.2"/>
<circle fill="none" stroke="#F1CB3E" stroke-width="2" stroke-linecap="round" stroke-linejoin="round" stroke-miterlimit="10" cx="104.1" cy="128.9" r="2.2"/>
<circle fill="none" stroke="#F1CB3E" stroke-width="2" stroke-linecap="round" stroke-linejoin="round" stroke-miterlimit="10" cx="77.1" cy="117" r="2.2"/>
<circle fill="none" stroke="#F1CB3E" stroke-width="2" stroke-linecap="round" stroke-linejoin="round" stroke-miterlimit="10" cx="50.1" cy="126.6" r="2.2"/>
<line fill="none" stroke="#F1CB3E" stroke-width="2" stroke-linecap="round" stroke-linejoin="round" stroke-miterlimit="10" x1="52.4" y1="125.7" x2="74.9" y2="118"/>
<line fill="none" stroke="#F1CB3E" stroke-width="2" stroke-linecap="round" stroke-linejoin="round" stroke-miterlimit="10" x1="79.3" y1="117" x2="101.9" y2="128.3"/>
<line fill="none" stroke="#F1CB3E" stroke-width="2" stroke-linecap="round" stroke-linejoin="round" stroke-miterlimit="10" x1="106.3" y1="128.3" x2="128.8" y2="109.3"/>
<line fill="none" stroke="#F1CB3E" stroke-width="2" stroke-linecap="round" stroke-linejoin="round" stroke-miterlimit="10" x1="133.3" y1="107" x2="155.8" y2="98.5"/>
<circle fill="none" stroke="#96CA5F" stroke-width="2" stroke-linecap="round" stroke-linejoin="round" stroke-miterlimit="10" cx="185" cy="13.2" r="2.2"/>
<line fill="none" stroke="#96CA5F" stroke-width="2" stroke-linecap="round" stroke-linejoin="round" stroke-miterlimit="10" x1="160.3" y1="3.9" x2="182.8" y2="13.2"/>
<circle fill="none" stroke="#00B7DA" stroke-width="2" stroke-linecap="round" stroke-linejoin="round" stroke-miterlimit="10" cx="185" cy="66.8" r="2.2"/>
<line fill="none" stroke="#00B7DA" stroke-width="2" stroke-linecap="round" stroke-linejoin="round" stroke-miterlimit="10" x1="160.3" y1="61.7" x2="182.8" y2="66.2"/>
<circle fill="none" stroke="#F1CB3E" stroke-width="2" stroke-linecap="round" stroke-linejoin="round" stroke-miterlimit="10" cx="185" cy="105.8" r="2.2"/>
<line fill="none" stroke="#F1CB3E" stroke-width="2" stroke-linecap="round" stroke-linejoin="round" stroke-miterlimit="10" x1="160.7" y1="99" x2="182.8" y2="105.5"/>
<g>
	<polyline fill="none" stroke="#E0E0E0" stroke-width="2" stroke-miterlimit="10" points="30.5,79.2 27,79.2 27,73.3 	"/>
	<circle fill="none" stroke="#E0E0E0" stroke-width="2" stroke-miterlimit="10" cx="27" cy="79.2" r="9.4"/>
	<ellipse fill="none" stroke="#E0E0E0" stroke-width="2" stroke-miterlimit="10" cx="16.3" cy="60.3" rx="14.2" ry="5.9"/>
	<line fill="none" stroke="#E0E0E0" stroke-width="2" stroke-miterlimit="10" x1="30.5" y1="60.3" x2="30.5" y2="66.2"/>
	<path fill="none" stroke="#E0E0E0" stroke-width="2" stroke-miterlimit="10" d="M2.2,66.2C2.2,69,7,71.4,13.4,72"/>
	<path fill="none" stroke="#E0E0E0" stroke-width="2" stroke-miterlimit="10" d="M2.2,72.1c0,2.6,4,4.8,9.5,5.6"/>
	<path fill="none" stroke="#E0E0E0" stroke-width="2" stroke-miterlimit="10" d="M2.2,60.3V78c0,2.7,4.3,4.9,10.1,5.7"/>
</g>
<g>
	<circle fill="none" stroke="#E0E0E0" stroke-width="2" stroke-miterlimit="10" cx="9.1" cy="31.6" r="2.3"/>
	<circle fill="none" stroke="#E0E0E0" stroke-width="2" stroke-miterlimit="10" cx="24.4" cy="31.6" r="2.3"/>
	<polyline fill="none" stroke="#E0E0E0" stroke-width="2" stroke-miterlimit="10" points="35.8,5.4 30.8,5.4 25,29.3 9.1,29.3 	"/>
	<polyline fill="none" stroke="#E0E0E0" stroke-width="2" stroke-miterlimit="10" points="25.5,27 7.1,27 2.8,13.4 28.8,13.4 	"/>
</g>
</svg>
